<?xml version="1.0" standalone="yes"?>
<svg xmlns="http://www.w3.org/2000/svg" width="50" height="50">
<path style="fill:#010101; stroke:none;" d="M0 0L0 50L50 50L50 0L0 0z"/>
<path style="fill:#0166f6; stroke:none;" d="M17 4L18 5L17 4z"/>
<path style="fill:#05aaf5; stroke:none;" d="M18 4.53318C3.65335 7.99848 -0.424482 27.9148 7.9892 38.8264C13.2866 45.6966 22.8234 47.3908 31 45.6096C44.6539 42.6351 50.5137 24.4643 43.3866 13.0401C38.1794 4.69352 27.1178 2.33087 18 4.53318z"/>
<path style="fill:#0166f6; stroke:none;" d="M34 5L35 6L34 5M36 6L37 7L36 6M10 8L11 9L10 8z"/>
<path style="fill:#65cbf9; stroke:none;" d="M39 8L40 9L39 8z"/>
<path style="fill:#0166f6; stroke:none;" d="M8 10L9 11L8 10M41 10L42 11L41 10z"/>
<path style="fill:#65cbf9; stroke:none;" d="M25 19L26 19L32 16C28.579 14.7146 26.6939 15.9251 25 19M36 15L33 16L33 17L35 21L36 21L36 15M13 16L13 21L14 21L14 18L21 22L21 21L13 16z"/>
<path style="fill:#f0fafe; stroke:none;" d="M25 23L14 18L16 23L14 26L17 27L15 29L20 31L20 32L14 33C22.6216 38.1646 37.9482 30.5039 34.6782 19.2284C32.559 11.9209 25.5146 18.4343 25 23z"/>
<path style="fill:#65cbf9; stroke:none;" d="M4 17L5 18L4 17M45 17L46 18L45 17M14 22L13 25L16 23L14 22M22 22L22 23L25 23L22 22M34 25L35 26L34 25M14 26L15 27L14 26M16 27L17 28L16 27M33 27L34 28L33 27M14 28L15 29L14 28M15 29L16 30L15 29M32 29L33 30L32 29M17 30L18 31L17 30M31 30L32 31L31 30M19 31L20 32L19 31M30 31L31 32L30 31M16.6667 32.3333L17.3333 32.6667L16.6667 32.3333M29 32L30 33L29 32M13 33L14 34L13 33M27 33L28 34L27 33z"/>
<path style="fill:#0166f6; stroke:none;" d="M5 34L6 35L5 34z"/>
<path style="fill:#65cbf9; stroke:none;" d="M15.6667 34.3333L16.3333 34.6667L15.6667 34.3333M24.6667 34.3333L25.3333 34.6667L24.6667 34.3333z"/>
<path style="fill:#0166f6; stroke:none;" d="M44 34L45 35L44 34M43 36L44 37L43 36z"/>
<path style="fill:#65cbf9; stroke:none;" d="M8 39L9 40L8 39M40 40L41 41L40 40z"/>
<path style="fill:#0166f6; stroke:none;" d="M10 41L11 42L10 41M36 43L37 44L36 43M34 44L35 45L34 44z"/>
</svg>
